<svg id="Layer_1" data-name="Layer 1" xmlns="http://www.w3.org/2000/svg" viewBox="0 0 251.05 339.2"><defs><style>.cls-1,.cls-4,.cls-6,.cls-7{fill:none;stroke:#3d4752;stroke-miterlimit:10;}.cls-1{stroke-width:0.9px;}.cls-2{fill:#afbbc6;}.cls-3{fill:#fff;}.cls-4{stroke-width:2.7px;}.cls-5{fill:#3d4752;}.cls-6{stroke-width:0.67px;}.cls-7{stroke-width:0.45px;}</style></defs><title>steps-to-creating-wireframe</title><rect class="cls-1" x="2.74" y="2.29" width="245.7" height="333.9" rx="2.25" ry="2.25"/><rect class="cls-2" x="2.74" y="2.29" width="245.7" height="27" rx="2.25" ry="2.25"/><rect class="cls-1" x="2.74" y="2.29" width="245.7" height="27" rx="2.25" ry="2.25"/><rect class="cls-3" x="89.14" y="13.09" width="153.9" height="10.8" rx="2.25" ry="2.25"/><rect class="cls-1" x="89.14" y="13.09" width="153.9" height="10.8" rx="2.25" ry="2.25"/><path class="cls-4" d="M8.14,18.49h10.8m-5.4-5.4-5.4,5.4,5.4,5.4"/><path class="cls-4" d="M29.74,18.49h10.8m-5.4-5.4,5.4,5.4-5.4,5.4"/><path class="cls-4" d="M62.14,18.49c-0.63-2.79-1.26-3.69-2.21-4.36a5.41,5.41,0,1,0,1.17,7.56"/><polygon class="cls-5" points="63.53 13.09 63.53 18.49 58.13 18.49 63.53 13.09"/><polygon class="cls-6" points="63.53 13.09 63.53 18.49 58.13 18.49 63.53 13.09"/><polygon class="cls-5" points="72.94 18.49 78.34 13.09 83.74 18.49 82.66 18.49 82.66 23.89 79.96 23.89 79.96 18.49 76.72 18.49 76.72 23.89 74.02 23.89 74.02 18.49 72.94 18.49"/><polygon class="cls-7" points="72.94 18.49 78.34 13.09 83.74 18.49 82.66 18.49 82.66 23.89 79.96 23.89 79.96 18.49 76.72 18.49 76.72 23.89 74.02 23.89 74.02 18.49 72.94 18.49"/><polyline class="cls-5" points="120.24 10.39 119.44 10.39 119.44 7.87 119.44 5.36 117.6 5.36 117.6 5.01 117.6 4.65 122.08 4.65 122.08 5.01 122.08 5.36 120.24 5.36 120.24 7.87 120.24 10.39"/><path class="cls-5" d="M123.09,4.67a0.5,0.5,0,0,1,.51.49,0.51,0.51,0,1,1-.51-0.49m0.38,5.72h-0.76V6.55h0.76v3.84Z"/><path class="cls-5" d="M126,10.45a1,1,0,0,1-1.12-1.2V7.17h-0.74V6.55h0.74V5.45h0.75v1.1h1V7.17h-1v2c0,0.44.13,0.64,0.54,0.65a1.09,1.09,0,0,0,.45-0.1l0,0.62a1.94,1.94,0,0,1-.65.11"/><polyline class="cls-5" points="128.24 10.39 127.48 10.39 127.48 7.33 127.48 4.26 128.24 4.26 128.24 7.33 128.24 10.39"/><path class="cls-5" d="M131.3,6.44c1.3,0,1.9.87,1.84,2.25h-3a1.2,1.2,0,0,0,1.25,1.17,1.28,1.28,0,0,0,1.12-.58L133,9.71a1.92,1.92,0,0,1-1.65.79,1.86,1.86,0,0,1-2-2,1.86,1.86,0,0,1,2-2m1.08,1.68a1.07,1.07,0,0,0-1.54-1,1.12,1.12,0,0,0-.75,1h2.28Z"/><path class="cls-5" d="M94.31,17.89a1.12,1.12,0,0,0-1,1.26v2H92.51V15.07h0.76c0,0.95,0,1.94,0,2.87a1.35,1.35,0,0,1,1.21-.69,1.37,1.37,0,0,1,1.43,1.56v2.38H95.18V19.07c0-.67-0.19-1.17-0.87-1.17"/><path class="cls-5" d="M98.45,21.25a1,1,0,0,1-1.12-1.2V18H96.59V17.35h0.74v-1.1h0.75v1.1h1V18h-1v2c0,0.44.13,0.64,0.54,0.65a1.09,1.09,0,0,0,.45-0.1l0,0.62a1.94,1.94,0,0,1-.65.11"/><path class="cls-5" d="M101,21.25a1,1,0,0,1-1.12-1.2V18H99.14V17.35h0.74v-1.1h0.75v1.1h1V18h-1v2c0,0.44.13,0.64,0.54,0.65a1.09,1.09,0,0,0,.45-0.1l0,0.62a1.94,1.94,0,0,1-.65.11"/><path class="cls-5" d="M104.44,20.65a1.24,1.24,0,0,0,1.28-1.39,1.23,1.23,0,0,0-1.28-1.39,1.26,1.26,0,0,0-1.3,1.39,1.25,1.25,0,0,0,1.3,1.39m0.13,0.64a1.59,1.59,0,0,1-1.35-.68h0v2.52h-0.76V17.35h0.75v0.6h0a1.54,1.54,0,0,1,1.39-.7,1.85,1.85,0,0,1,1.92,2A1.84,1.84,0,0,1,104.57,21.29Z"/><path class="cls-5" d="M108.13,20.18a0.53,0.53,0,0,1,.54.53,0.54,0.54,0,0,1-1.09,0,0.54,0.54,0,0,1,.54-0.53m0-2.88a0.53,0.53,0,1,1-.54.53A0.55,0.55,0,0,1,108.13,17.3Z"/><polyline class="cls-5" points="109.9 21.46 109.33 21.26 111.81 15.18 112.39 15.39"/><polyline class="cls-5" points="112.98 21.46 112.41 21.26 114.89 15.18 115.47 15.39"/><polyline class="cls-5" points="116.93 21.19 116.17 21.19 116.17 18.13 116.17 15.06 116.93 15.06 116.93 18.13 116.93 21.19"/><path class="cls-5" d="M121.66,17.35c0,1.28,0,2.61,0,3.84H121c0-.16,0-0.49,0-0.63a1.41,1.41,0,0,1-1.26.74,1.36,1.36,0,0,1-1.43-1.56V17.35H119v2.12c0,0.68.19,1.18,0.87,1.18a1.11,1.11,0,0,0,1-1.26v-2h0.76"/><path class="cls-5" d="M122.72,19.27a1.88,1.88,0,0,1,2-2,1.82,1.82,0,0,1,1.44.63l-0.55.45a1.05,1.05,0,0,0-.88-0.44,1.24,1.24,0,0,0-1.26,1.39,1.24,1.24,0,0,0,1.26,1.39,1.1,1.1,0,0,0,.92-0.42l0.51,0.46a1.77,1.77,0,0,1-1.43.6,1.9,1.9,0,0,1-2.07-2"/><path class="cls-5" d="M127.37,15.47a0.5,0.5,0,0,1,.51.49,0.51,0.51,0,1,1-.51-0.49m0.38,5.72H127V17.35h0.76v3.84Z"/><path class="cls-5" d="M130.88,17.88a1.23,1.23,0,0,0-1.27,1.39,1.23,1.23,0,0,0,1.27,1.39,1.25,1.25,0,0,0,1.3-1.39,1.26,1.26,0,0,0-1.3-1.39m-0.14-.63a1.7,1.7,0,0,1,1.39.68V15.07h0.76v6.12h-0.74a3.73,3.73,0,0,0,0-.61,1.6,1.6,0,0,1-1.39.71,1.84,1.84,0,0,1-1.94-2A1.86,1.86,0,0,1,130.74,17.24Z"/><path class="cls-5" d="M134,19.27a1.88,1.88,0,0,1,2-2,1.82,1.82,0,0,1,1.44.63l-0.55.45a1.05,1.05,0,0,0-.88-0.44,1.24,1.24,0,0,0-1.26,1.39A1.24,1.24,0,0,0,136,20.65a1.1,1.1,0,0,0,.92-0.42l0.51,0.46a1.77,1.77,0,0,1-1.43.6,1.9,1.9,0,0,1-2.07-2"/><path class="cls-5" d="M140,17.89a1.12,1.12,0,0,0-1,1.26v2h-0.76V15.07H139c0,0.95,0,1.94,0,2.87a1.35,1.35,0,0,1,1.21-.69,1.37,1.37,0,0,1,1.43,1.56v2.38H140.9V19.07c0-.67-0.19-1.17-0.87-1.17"/><path class="cls-5" d="M144.23,20.69a1.09,1.09,0,0,0,1.11-1.33c-0.83,0-1.9,0-1.9.73a0.65,0.65,0,0,0,.79.6m-1.56-.58c0-1.24,1.4-1.26,2.67-1.3a0.83,0.83,0,0,0-.95-0.95,1.6,1.6,0,0,0-1.09.45l-0.4-.49a2.26,2.26,0,0,1,1.57-.58,1.42,1.42,0,0,1,1.6,1.51,23.92,23.92,0,0,0,.06,2.44h-0.69a2.56,2.56,0,0,1-.06-0.55h0a1.47,1.47,0,0,1-1.29.65A1.19,1.19,0,0,1,142.67,20.1Z"/><path class="cls-5" d="M147.34,21.19c0-1.28,0-2.61,0-3.84H148c0,0.16,0,.48,0,0.65h0a1.3,1.3,0,0,1,1.47-.72l0,0.7a1.1,1.1,0,0,0-1.43,1.19v2h-0.76"/><path class="cls-5" d="M151.4,21.25a1,1,0,0,1-1.12-1.2V18h-0.74V17.35h0.74v-1.1H151v1.1h1V18h-1v2c0,0.44.13,0.64,0.54,0.65a1.09,1.09,0,0,0,.45-0.1l0,0.62a1.94,1.94,0,0,1-.65.11"/><path class="cls-5" d="M153.24,20.18a0.53,0.53,0,0,1,.54.53,0.54,0.54,0,0,1-1.09,0,0.54,0.54,0,0,1,.54-0.53"/><path class="cls-5" d="M154.69,19.27a1.88,1.88,0,0,1,2-2,1.82,1.82,0,0,1,1.44.63l-0.55.45a1.05,1.05,0,0,0-.88-0.44,1.24,1.24,0,0,0-1.26,1.39,1.24,1.24,0,0,0,1.26,1.39,1.1,1.1,0,0,0,.92-0.42l0.51,0.46a1.77,1.77,0,0,1-1.43.6,1.9,1.9,0,0,1-2.07-2"/><path class="cls-5" d="M160.76,20.65A1.24,1.24,0,0,0,162,19.26a1.28,1.28,0,1,0-2.56,0,1.24,1.24,0,0,0,1.28,1.39m0-3.41a1.9,1.9,0,0,1,2.07,2,2.07,2.07,0,0,1-4.14,0A1.89,1.89,0,0,1,160.76,17.24Z"/><path class="cls-5" d="M164.63,18a1.34,1.34,0,0,1,1.22-.74A1.2,1.2,0,0,1,167,18a1.41,1.41,0,0,1,1.3-.77,1.36,1.36,0,0,1,1.43,1.56v2.38H169V19.06c0-.66-0.19-1.17-0.85-1.17-1.39,0-.87,2-1,3.3h-0.76V18.9a0.83,0.83,0,0,0-.81-1,1.11,1.11,0,0,0-1,1.26v2h-0.76c0-1.28,0-2.61,0-3.84h0.72c0,0.16,0,.45,0,0.63h0"/><rect class="cls-3" x="14.89" y="37.39" width="221.4" height="19.8" rx="2.25" ry="2.25"/><rect class="cls-1" x="14.89" y="37.39" width="221.4" height="19.8" rx="2.25" ry="2.25"/><path class="cls-5" d="M20.79,42.86c0.63,2.24,1.22,4.54,1.89,6.75l2-6.75H26c0.67,2.24,1.29,4.54,2,6.75l1.87-6.75H31.1l-2.49,8.47H27.37c-0.69-2.26-1.35-4.57-2.08-6.81l-2.06,6.81H22l-2.49-8.47h1.28"/><path class="cls-5" d="M34.32,45.51c1.92,0,2.81,1.29,2.72,3.33h-4.5a1.77,1.77,0,0,0,1.84,1.72A1.89,1.89,0,0,0,36,49.7l0.79,0.63a2.84,2.84,0,0,1-2.44,1.16,2.75,2.75,0,0,1-3-3,2.75,2.75,0,0,1,2.93-3M35.91,48a1.57,1.57,0,0,0-2.27-1.47A1.65,1.65,0,0,0,32.53,48h3.38Z"/><path class="cls-5" d="M41.61,50.55a2.06,2.06,0,0,0,0-4.11,2.06,2.06,0,0,0,0,4.11m0.19,0.95a2.39,2.39,0,0,1-2-1.05h0v0.9H38.64v-9h1.13v4.23h0a2.37,2.37,0,0,1,2-1,2.73,2.73,0,0,1,2.84,3A2.71,2.71,0,0,1,41.8,51.49Z"/><path class="cls-5" d="M46,47.92c-0.74-1.86,1.4-2.93,3.16-2.17a1.93,1.93,0,0,1,.89.69l-0.78.66A1.51,1.51,0,0,0,48,46.4a0.86,0.86,0,0,0-1.05.74c0,0.87,1.35.75,2,1.08a1.6,1.6,0,0,1,1.15,1.45c0.08,2.31-3.61,2.24-4.55.81l0.8-.68a1.84,1.84,0,0,0,1.51.79A0.91,0.91,0,0,0,49,49.76c0-1.08-1.88-.75-2.6-1.4A1.24,1.24,0,0,1,46,47.92"/><path class="cls-5" d="M52.11,42.89a0.75,0.75,0,0,1,.75.73,0.75,0.75,0,1,1-.75-0.73m0.56,8.45H51.55V45.67h1.13v5.67Z"/><path class="cls-5" d="M56.45,51.43a1.53,1.53,0,0,1-1.65-1.77V46.59H53.71V45.67H54.8V44h1.11v1.63h1.51v0.92H55.91v3c0,0.65.19,0.95,0.8,1a1.61,1.61,0,0,0,.66-0.14l0,0.92a2.87,2.87,0,0,1-1,.16"/><path class="cls-5" d="M61.14,45.51c1.92,0,2.81,1.29,2.72,3.33h-4.5a1.77,1.77,0,0,0,1.84,1.72,1.89,1.89,0,0,0,1.65-.86l0.79,0.63a2.84,2.84,0,0,1-2.44,1.16,2.75,2.75,0,0,1-3-3,2.75,2.75,0,0,1,2.93-3M62.73,48a1.57,1.57,0,0,0-2.27-1.47A1.65,1.65,0,0,0,59.36,48h3.38Z"/><path class="cls-5" d="M70.11,42.86c1.48,2.25,2.94,4.55,4.45,6.78V42.86h1.19v8.47h-1.5c-1.51-2.3-3-4.64-4.5-6.92v6.92H68.57V42.86h1.54"/><path class="cls-5" d="M79.64,50.6a1.61,1.61,0,0,0,1.64-2c-1.23,0-2.8-.06-2.8,1.08a1,1,0,0,0,1.16.89m-2.31-.86c0-1.83,2.07-1.87,4-1.92a1.22,1.22,0,0,0-1.4-1.4,2.36,2.36,0,0,0-1.62.66l-0.6-.72A3.34,3.34,0,0,1,80,45.51a2.11,2.11,0,0,1,2.37,2.23,35.36,35.36,0,0,0,.08,3.6h-1a3.78,3.78,0,0,1-.1-0.81h0a2.17,2.17,0,0,1-1.9,1C78.22,51.48,77.33,50.94,77.33,49.73Z"/><path class="cls-5" d="M85.34,46.6a2,2,0,0,1,1.81-1.09,1.78,1.78,0,0,1,1.76,1.14,2.09,2.09,0,0,1,1.93-1.14A2,2,0,0,1,93,47.82v3.52H91.83V48.19c0-1-.29-1.74-1.26-1.74-2,0-1.29,2.92-1.44,4.88H88V48c0-.9-0.31-1.51-1.2-1.51a1.64,1.64,0,0,0-1.45,1.87v3H84.24c0-1.89,0-3.85,0-5.67h1.07c0,0.24,0,.67,0,0.93h0"/><path class="cls-5" d="M97.42,45.51c1.92,0,2.81,1.29,2.72,3.33h-4.5a1.77,1.77,0,0,0,1.84,1.72,1.89,1.89,0,0,0,1.65-.86l0.79,0.63a2.84,2.84,0,0,1-2.44,1.16,2.75,2.75,0,0,1-3-3,2.75,2.75,0,0,1,2.93-3M99,48a1.57,1.57,0,0,0-2.27-1.47A1.65,1.65,0,0,0,95.63,48H99Z"/><rect class="cls-3" x="14.89" y="64.39" width="221.4" height="108" rx="2.25" ry="2.25"/><rect class="cls-1" x="14.89" y="64.39" width="221.4" height="108" rx="2.25" ry="2.25"/><path class="cls-1" d="M236.29,64.39l-221.4,108m0-108,221.4,108"/><rect class="cls-3" x="89.59" y="179.59" width="72" height="18" rx="5.4" ry="5.4"/><rect class="cls-1" x="89.59" y="179.59" width="72" height="18" rx="5.4" ry="5.4"/><path class="cls-5" d="M104.68,190.59a1.78,1.78,0,0,0,1.54-.76l0.64,0.44a2.57,2.57,0,0,1-2.19,1,2.87,2.87,0,0,1-2.79-1.8,3.44,3.44,0,0,1,0-2.45,3,3,0,0,1,3.42-1.73,2.23,2.23,0,0,1,1.47.83l-0.63.49a1.73,1.73,0,0,0-1.43-.67,2.1,2.1,0,0,0-2.18,2.3,2.06,2.06,0,0,0,2.15,2.31"/><path class="cls-5" d="M108.77,190.65a1.09,1.09,0,0,0,1.11-1.33c-0.83,0-1.9,0-1.9.73a0.65,0.65,0,0,0,.79.6m-1.56-.58c0-1.24,1.4-1.26,2.67-1.3a0.83,0.83,0,0,0-.95-0.95,1.6,1.6,0,0,0-1.09.45l-0.4-.49a2.26,2.26,0,0,1,1.57-.58,1.42,1.42,0,0,1,1.6,1.51,23.92,23.92,0,0,0,.06,2.44H110a2.56,2.56,0,0,1-.06-0.55h0a1.47,1.47,0,0,1-1.29.65A1.19,1.19,0,0,1,107.21,190.07Z"/><polyline class="cls-5" points="112.66 191.15 111.89 191.15 111.89 188.09 111.89 185.03 112.66 185.03 112.66 188.09 112.66 191.15"/><polyline class="cls-5" points="114.76 191.15 114 191.15 114 188.09 114 185.03 114.76 185.03 114.76 188.09 114.76 191.15"/><path class="cls-5" d="M119.32,191.22a1,1,0,0,1-1.12-1.2v-2.08h-0.74v-0.62h0.74v-1.1H119v1.1h1v0.62h-1v2c0,0.44.13,0.64,0.54,0.65a1.09,1.09,0,0,0,.45-0.1l0,0.62a1.94,1.94,0,0,1-.65.11"/><path class="cls-5" d="M122.58,190.62a1.39,1.39,0,1,0-1.28-1.39,1.24,1.24,0,0,0,1.28,1.39m0-3.41a2,2,0,1,1-2.07,2A1.9,1.9,0,0,1,122.58,187.21Z"/><path class="cls-5" d="M129,190.65a1.09,1.09,0,0,0,1.11-1.33c-0.83,0-1.9,0-1.9.73a0.65,0.65,0,0,0,.79.6m-1.56-.58c0-1.24,1.4-1.26,2.67-1.3a0.83,0.83,0,0,0-.95-0.95,1.6,1.6,0,0,0-1.09.45l-0.4-.49a2.26,2.26,0,0,1,1.57-.58,1.42,1.42,0,0,1,1.6,1.51,23.92,23.92,0,0,0,.06,2.44h-0.69a2.56,2.56,0,0,1-.06-0.55h0a1.47,1.47,0,0,1-1.29.65A1.19,1.19,0,0,1,127.45,190.07Z"/><path class="cls-5" d="M131.87,189.23a1.88,1.88,0,0,1,2-2,1.82,1.82,0,0,1,1.44.63l-0.55.45a1.05,1.05,0,0,0-.88-0.44,1.39,1.39,0,0,0,0,2.77,1.1,1.1,0,0,0,.92-0.42l0.51,0.46a1.77,1.77,0,0,1-1.43.6,1.9,1.9,0,0,1-2.07-2"/><path class="cls-5" d="M137.34,191.22a1,1,0,0,1-1.12-1.2v-2.08h-0.74v-0.62h0.74v-1.1H137v1.1h1v0.62h-1v2c0,0.44.13,0.64,0.54,0.65a1.09,1.09,0,0,0,.45-0.1l0,0.62a1.94,1.94,0,0,1-.65.11"/><path class="cls-5" d="M139.18,185.44a0.5,0.5,0,0,1,.51.49,0.51,0.51,0,1,1-.51-0.49m0.38,5.72h-0.76v-3.84h0.76v3.84Z"/><path class="cls-5" d="M142.7,190.62a1.39,1.39,0,1,0-1.28-1.39,1.24,1.24,0,0,0,1.28,1.39m0-3.41a2,2,0,1,1-2.07,2A1.9,1.9,0,0,1,142.7,187.21Z"/><path class="cls-5" d="M145.83,191.15c0-1.28,0-2.61,0-3.84h0.72c0,0.16,0,.45,0,0.63h0a1.34,1.34,0,0,1,1.25-.74,1.36,1.36,0,0,1,1.43,1.56v2.38h-0.76V189c0-.68-0.19-1.17-0.87-1.17a1.11,1.11,0,0,0-1,1.26v2h-0.76"/><rect class="cls-1" x="14.89" y="204.79" width="84.6" height="90" rx="2.25" ry="2.25"/><path class="cls-5" d="M27.69,251.81a2.05,2.05,0,0,0,1.68-.8l0.53,0.45a2.74,2.74,0,0,1-2.28,1A2.31,2.31,0,0,1,25,250a3.48,3.48,0,0,1,2.07-3.29,3,3,0,0,1,2.95.25,1.52,1.52,0,0,1,.32.36l-0.66.48a1.42,1.42,0,0,0-1.3-.69,2.49,2.49,0,0,0-2.37,1.76,2.82,2.82,0,0,0-.19,1,1.69,1.69,0,0,0,1.81,1.87"/><path class="cls-5" d="M31.47,250.63c-0.12.64,0,1.22,0.7,1.19a1.38,1.38,0,0,0,1.22-1.26l0.36-2H34.5c-0.21,1.29-.47,2.52-0.65,3.84H33.14a4.29,4.29,0,0,0,.06-0.62,1.52,1.52,0,0,1-1.28.73,1.2,1.2,0,0,1-1.25-1.57l0.42-2.37h0.75"/><path class="cls-5" d="M35.54,250c-0.58-1.58,2.08-2.15,2.84-.95l-0.58.38A0.87,0.87,0,0,0,37,249a0.65,0.65,0,0,0-.79.53c0,0.41.33,0.42,0.69,0.54A1.23,1.23,0,0,1,38,251.23c0,1.18-1.55,1.5-2.54,1a1.41,1.41,0,0,1-.62-0.55l0.61-.4a1.09,1.09,0,0,0,1,.53,0.71,0.71,0,0,0,.84-0.57c0-.7-1.13-0.57-1.53-1a0.92,0.92,0,0,1-.22-0.28"/><path class="cls-5" d="M40.62,252.31c-0.75.27-1.74,0.06-1.57-.91,0.13-.77.27-1.51,0.4-2.28H38.72l0.11-.62h0.72l0.19-1.1h0.75l-0.19,1.1h1l-0.11.62H40.19c-0.13.75-.29,1.47-0.39,2.26-0.06.49,0.57,0.47,0.87,0.32"/><path class="cls-5" d="M43.32,251.83a1.52,1.52,0,0,0,1.5-1.68,1,1,0,0,0-1.1-1.11,1.51,1.51,0,0,0-1.5,1.68,1,1,0,0,0,1.1,1.11m0.45-3.42a1.61,1.61,0,0,1,1.81,1.66,2.18,2.18,0,0,1-2.3,2.39,1.62,1.62,0,0,1-1.82-1.68A2.18,2.18,0,0,1,43.77,248.41Z"/><path class="cls-5" d="M50,249.19a1.57,1.57,0,0,1,1.36-.79A1.2,1.2,0,0,1,52.59,250l-0.42,2.37H51.42a16.44,16.44,0,0,0,.41-2.55A0.66,0.66,0,0,0,51.1,249a1.25,1.25,0,0,0-1.15,1.24l-0.36,2.07H48.83c0.15-.88.34-1.72,0.45-2.63a0.68,0.68,0,0,0-1.08-.59c-1,.47-0.84,2.07-1.14,3.22H46.3c0.21-1.29.47-2.52,0.65-3.84h0.71a4.41,4.41,0,0,0-.06.62,1.47,1.47,0,0,1,1.26-.73,1,1,0,0,1,1.11.79"/><path class="cls-5" d="M56.6,250.11c0.28-1.1-1.16-1.42-1.84-.76a1.61,1.61,0,0,0-.45.76H56.6m-0.87-1.7c1.24-.06,1.85,1,1.51,2.25h-3a1,1,0,0,0,1.11,1.17,1.45,1.45,0,0,0,1.21-.58L57,251.67a2.16,2.16,0,0,1-1.73.79,1.59,1.59,0,0,1-1.78-1.7A2.19,2.19,0,0,1,55.72,248.41Z"/><path class="cls-5" d="M59.33,249.16a1.37,1.37,0,0,1,1.5-.72l-0.13.7a1.26,1.26,0,0,0-1.56,1.19l-0.36,2H58c0.21-1.29.47-2.52,0.65-3.84h0.71c0,0.2-.08.48-0.06,0.65"/><path class="cls-5" d="M65.11,249a1.49,1.49,0,0,0-1.49,1.69,1,1,0,0,0,1.07,1.11,1.55,1.55,0,0,0,1.52-1.68,1,1,0,0,0-1.1-1.12m-0.59,3.43a1.54,1.54,0,0,1-1.68-1.66A2.17,2.17,0,0,1,65,248.41a1.5,1.5,0,0,1,1.37.75l0.11-.65h0.73l-1,5.78H65.47l0.47-2.56h0A1.65,1.65,0,0,1,64.52,252.45Z"/><path class="cls-5" d="M68.85,250.63c-0.12.64,0,1.22,0.7,1.19a1.38,1.38,0,0,0,1.22-1.26l0.36-2h0.75c-0.21,1.29-.47,2.52-0.65,3.84H70.52a4.29,4.29,0,0,0,.06-0.62,1.52,1.52,0,0,1-1.28.73,1.2,1.2,0,0,1-1.25-1.57l0.42-2.37h0.75"/><path class="cls-5" d="M74.48,251.83a1.52,1.52,0,0,0,1.5-1.68,1,1,0,0,0-1.1-1.11,1.51,1.51,0,0,0-1.5,1.68,1,1,0,0,0,1.1,1.11m0.45-3.42a1.61,1.61,0,0,1,1.81,1.66,2.18,2.18,0,0,1-2.3,2.39,1.62,1.62,0,0,1-1.82-1.68A2.18,2.18,0,0,1,74.93,248.41Z"/><path class="cls-5" d="M79.27,252.31c-0.75.27-1.74,0.06-1.57-.91,0.13-.77.27-1.51,0.4-2.28H77.36l0.11-.62H78.2l0.19-1.1h0.75l-0.19,1.1h1l-0.11.62H78.84c-0.13.75-.29,1.47-0.39,2.26-0.06.49,0.57,0.47,0.87,0.32"/><path class="cls-5" d="M83.22,250.11c0.28-1.1-1.16-1.42-1.84-.76a1.61,1.61,0,0,0-.45.76h2.29m-0.87-1.7c1.24-.06,1.85,1,1.51,2.25h-3A1,1,0,0,0,82,251.84a1.45,1.45,0,0,0,1.21-.58l0.45,0.42a2.16,2.16,0,0,1-1.73.79,1.59,1.59,0,0,1-1.78-1.7A2.19,2.19,0,0,1,82.35,248.41Z"/><path class="cls-5" d="M85,250c-0.58-1.58,2.08-2.15,2.84-.95l-0.58.38a0.87,0.87,0,0,0-.81-0.43,0.65,0.65,0,0,0-.79.53c0,0.41.33,0.42,0.69,0.54a1.23,1.23,0,0,1,1.14,1.14c0,1.18-1.55,1.5-2.54,1a1.41,1.41,0,0,1-.62-0.55l0.61-.4a1.09,1.09,0,0,0,1,.53,0.71,0.71,0,0,0,.84-0.57c0-.7-1.13-0.57-1.53-1A0.92,0.92,0,0,1,85,250"/><path class="cls-5" d="M88.71,251.36a0.48,0.48,0,0,1,.49.5,0.54,0.54,0,0,1-.52.53,0.49,0.49,0,0,1-.51-0.5,0.53,0.53,0,0,1,.53-0.53"/><rect class="cls-3" x="104.89" y="204.79" width="131.4" height="72"/><rect class="cls-1" x="104.89" y="204.79" width="131.4" height="72"/><rect class="cls-2" x="104.89" y="276.79" width="131.4" height="18"/><rect class="cls-1" x="104.89" y="276.79" width="131.4" height="18"/><path class="cls-5" d="M125.14,283.54H216a2.25,2.25,0,1,1,0,4.5h-90.9A2.25,2.25,0,1,1,125.14,283.54Z"/><polygon class="cls-2" points="158.62 227.29 182.56 240.79 158.62 254.29 158.62 227.29"/><polygon class="cls-1" points="158.62 227.29 182.56 240.79 158.62 254.29 158.62 227.29"/><polygon class="cls-5" points="109.39 281.29 118.39 285.79 109.39 290.29 109.39 281.29"/><polygon class="cls-5" points="231.79 281.29 222.79 285.79 231.79 290.29 231.79 281.29"/><rect class="cls-5" x="222.79" y="283.54" width="4.5" height="4.5"/><path class="cls-3" d="M153.31,285.79a4.5,4.5,0,1,1-4.5-4.5A4.51,4.51,0,0,1,153.31,285.79Z"/><path class="cls-1" d="M153.31,285.79a4.5,4.5,0,1,1-4.5-4.5A4.51,4.51,0,0,1,153.31,285.79Z"/><rect class="cls-3" x="14.89" y="305.59" width="221.4" height="19.8" rx="2.25" ry="2.25"/><rect class="cls-1" x="14.89" y="305.59" width="221.4" height="19.8" rx="2.25" ry="2.25"/><path class="cls-5" d="M23.54,316.12h2.15l-1.07-2.69m-1.94,4.8H21.79l2.49-5.73H25l2.46,5.73H26.56L26,316.82H23.26Z"/><path class="cls-5" d="M31.44,316.57c0-1.13-1.3-1-2.43-1v2c1.13,0,2.4.12,2.43-1M31.18,314c0-1-1.17-.86-2.17-0.86v1.75C30,314.93,31.18,315,31.18,314Zm1.07,2.58c0,1.84-2.15,1.64-4,1.63V312.5h2c1,0,1.77.4,1.8,1.45a1.3,1.3,0,0,1-1,1.26A1.32,1.32,0,0,1,32.25,316.61Z"/><path class="cls-5" d="M36.15,317.66a2.3,2.3,0,1,0-2.16-2.3,2.07,2.07,0,0,0,2.16,2.3M39,314.14a3.36,3.36,0,0,1,0,2.45,3.1,3.1,0,0,1-5.62,0,3.44,3.44,0,0,1,0-2.45A3.11,3.11,0,0,1,39,314.14Z"/><path class="cls-5" d="M44.7,316.11a2.08,2.08,0,0,1-2.23,2.27,2.06,2.06,0,0,1-2.23-2.27V312.5H41v3.56a1.43,1.43,0,1,0,2.85,0V312.5h0.8v3.61"/><polyline class="cls-5" points="48.06 318.23 47.26 318.23 47.26 315.72 47.26 313.2 45.42 313.2 45.42 312.85 45.42 312.5 49.9 312.5 49.9 312.85 49.9 313.2 48.06 313.2 48.06 315.72 48.06 318.23"/><path class="cls-5" d="M56.9,316.11a2.08,2.08,0,0,1-2.23,2.27,2.06,2.06,0,0,1-2.23-2.27V312.5h0.8v3.56a1.43,1.43,0,1,0,2.85,0V312.5h0.8v3.61"/><path class="cls-5" d="M58.06,314c0-1.43,1.6-1.93,2.91-1.46a1.65,1.65,0,0,1,.7.48l-0.57.55A1.38,1.38,0,0,0,60,313a1,1,0,0,0-1,1.32c0.45,0.66,1.61.61,2.21,1.12a1.44,1.44,0,0,1,.55,1.17c0,1.54-1.67,2.07-3,1.53a2,2,0,0,1-.83-0.62l0.62-.53a1.6,1.6,0,0,0,1.28.67,1,1,0,0,0,1-1.42c-0.4-.71-1.68-0.61-2.27-1.17a1.44,1.44,0,0,1-.47-1.12"/><polyline class="cls-5" points="69.34 313.21 69.56 313.83 68.53 314.16 69.19 315.04 68.67 315.43 67.99 314.52 67.31 315.43 66.79 315.04 67.44 314.16 66.42 313.83 66.63 313.21 67.66 313.54 67.66 313.02 67.66 312.5 68.31 312.5 68.31 313.02 68.31 313.54"/><path class="cls-5" d="M75.34,317.67a1.78,1.78,0,0,0,1.54-.76l0.64,0.44a2.57,2.57,0,0,1-2.19,1,2.87,2.87,0,0,1-2.79-1.8,3.44,3.44,0,0,1,0-2.45A3,3,0,0,1,76,312.41a2.23,2.23,0,0,1,1.47.83l-0.63.49a1.73,1.73,0,0,0-1.43-.67,2.1,2.1,0,0,0-2.18,2.3,2.06,2.06,0,0,0,2.15,2.31"/><path class="cls-5" d="M81,317.66a2.3,2.3,0,1,0-2.16-2.3,2.07,2.07,0,0,0,2.16,2.3m2.82-3.52a3.36,3.36,0,0,1,0,2.45,3.1,3.1,0,0,1-5.62,0,3.44,3.44,0,0,1,0-2.45A3.11,3.11,0,0,1,83.79,314.14Z"/><path class="cls-5" d="M86.16,312.5c1,1.52,2,3.08,3,4.58V312.5H90v5.73H89c-1-1.56-2-3.14-3-4.68v4.68h-0.8V312.5h1"/><polyline class="cls-5" points="93.38 318.23 92.58 318.23 92.58 315.72 92.58 313.2 90.74 313.2 90.74 312.85 90.74 312.5 95.22 312.5 95.22 312.85 95.22 313.2 93.38 313.2 93.38 315.72 93.38 318.23"/><path class="cls-5" d="M96.58,316.12h2.15l-1.07-2.69m-1.94,4.8H94.84l2.49-5.73h0.73l2.46,5.73H99.61L99,316.82H96.3Z"/><path class="cls-5" d="M103.84,317.67a1.78,1.78,0,0,0,1.54-.76l0.64,0.44a2.57,2.57,0,0,1-2.19,1,2.87,2.87,0,0,1-2.79-1.8,3.44,3.44,0,0,1,0-2.45,3,3,0,0,1,3.42-1.73,2.23,2.23,0,0,1,1.47.83l-0.63.49a1.73,1.73,0,0,0-1.43-.67,2.1,2.1,0,0,0-2.18,2.3,2.06,2.06,0,0,0,2.15,2.31"/><polyline class="cls-5" points="108.8 318.23 108 318.23 108 315.72 108 313.2 106.16 313.2 106.16 312.85 106.16 312.5 110.64 312.5 110.64 312.85 110.64 313.2 108.8 313.2 108.8 315.72 108.8 318.23"/><polyline class="cls-5" points="114.04 318.23 113.24 318.23 113.24 315.37 113.24 312.5 114.04 312.5 114.04 315.37 114.04 318.23"/><path class="cls-5" d="M116.48,312.5c1,1.52,2,3.08,3,4.58V312.5h0.8v5.73h-1c-1-1.56-2-3.14-3-4.68v4.68h-0.8V312.5h1"/><polyline class="cls-5" points="122.49 318.23 121.68 318.23 121.68 315.37 121.68 312.5 125.26 312.5 125.26 312.85 125.26 313.2 122.49 313.2 122.49 314.1 122.49 314.99 125.09 314.99 125.09 315.33 125.09 315.67 122.49 315.67 122.49 316.95 122.49 318.23"/><path class="cls-5" d="M129,317.66a2.3,2.3,0,1,0-2.16-2.3,2.07,2.07,0,0,0,2.16,2.3m2.82-3.52a3.36,3.36,0,0,1,0,2.45,3.1,3.1,0,0,1-5.62,0,3.44,3.44,0,0,1,0-2.45A3.11,3.11,0,0,1,131.84,314.14Z"/><polyline class="cls-5" points="137.65 313.21 137.87 313.83 136.84 314.16 137.5 315.04 136.98 315.43 136.3 314.52 135.62 315.43 135.1 315.04 135.75 314.16 134.73 313.83 134.94 313.21 135.97 313.54 135.97 313.02 135.97 312.5 136.62 312.5 136.62 313.02 136.62 313.54"/><path class="cls-5" d="M142,316.12h2.15L143,313.43m-1.94,4.8h-0.89l2.49-5.73h0.73l2.46,5.73H145l-0.58-1.41h-2.72Z"/><path class="cls-5" d="M150.93,316.11a2.08,2.08,0,0,1-2.23,2.27,2.06,2.06,0,0,1-2.23-2.27V312.5h0.8v3.56a1.43,1.43,0,1,0,2.85,0V312.5h0.8v3.61"/><polyline class="cls-5" points="154.29 318.23 153.49 318.23 153.49 315.72 153.49 313.2 151.66 313.2 151.66 312.85 151.66 312.5 156.13 312.5 156.13 312.85 156.13 313.2 154.29 313.2 154.29 315.72 154.29 318.23"/><polyline class="cls-5" points="156.9 312.5 157.7 312.5 157.7 313.7 157.7 314.9 160.6 314.9 160.6 313.7 160.6 312.5 161.41 312.5 161.41 315.37 161.41 318.23 160.6 318.23 160.6 316.92 160.6 315.61 157.7 315.61 157.7 316.92 157.7 318.23 156.9 318.23 156.9 315.37 156.9 312.5"/><path class="cls-5" d="M165.54,317.66a2.3,2.3,0,1,0-2.16-2.3,2.07,2.07,0,0,0,2.16,2.3m2.82-3.52a3.36,3.36,0,0,1,0,2.45,3.1,3.1,0,0,1-5.62,0,3.44,3.44,0,0,1,0-2.45A3.11,3.11,0,0,1,168.36,314.14Z"/><path class="cls-5" d="M172.75,314.09c0-1-1.21-.91-2.27-0.91V315c1.06,0,2.27.11,2.27-.92m0.81,0a1.53,1.53,0,0,1-1.39,1.51l1.6,2.63h-1l-1.46-2.55h-0.86v2.55h-0.8V312.5C171.5,312.49,173.56,312.25,173.56,314.09Z"/><polyline class="cls-5" points="175.45 318.23 174.65 318.23 174.65 315.37 174.65 312.5 175.45 312.5 175.45 315.37 175.45 318.23"/><polyline class="cls-5" points="180.63 313.2 177.39 317.52 180.68 317.52 180.68 317.88 180.68 318.23 176.42 318.23 176.42 317.88 176.42 317.53 179.65 313.2 176.48 313.2 176.48 312.85 176.48 312.5 180.63 312.5 180.63 312.85 180.63 313.2"/><polyline class="cls-5" points="182.44 317.52 185.44 317.52 185.44 317.88 185.44 318.23 181.64 318.23 181.64 315.37 181.64 312.5 185.32 312.5 185.32 312.85 185.32 313.2 182.44 313.2 182.44 314.06 182.44 314.92 185.15 314.92 185.15 315.26 185.15 315.61 182.44 315.61 182.44 316.56 182.44 317.52"/><path class="cls-5" d="M190.71,315.37c0-1.46-.95-2.13-2.4-2.17h-1v4.33h1c1.44,0,2.4-.72,2.4-2.16m-2.24-2.87c1.84,0.09,3.09,1,3.09,2.87a2.67,2.67,0,0,1-2,2.69,12,12,0,0,1-3.07.18V312.5h2Z"/><path class="cls-5" d="M198.93,315.37c0-1.46-.95-2.13-2.4-2.17h-1v4.33h1c1.44,0,2.4-.72,2.4-2.16m-2.24-2.87c1.84,0.09,3.09,1,3.09,2.87a2.67,2.67,0,0,1-2,2.69,12,12,0,0,1-3.07.18V312.5h2Z"/><polyline class="cls-5" points="201.7 317.52 204.69 317.52 204.69 317.88 204.69 318.23 200.9 318.23 200.9 315.37 200.9 312.5 204.57 312.5 204.57 312.85 204.57 313.2 201.7 313.2 201.7 314.06 201.7 314.92 204.4 314.92 204.4 315.26 204.4 315.61 201.7 315.61 201.7 316.56 201.7 317.52"/><path class="cls-5" d="M206.86,316.12H209l-1.07-2.69m-1.94,4.8h-0.89l2.49-5.73h0.73l2.46,5.73h-0.91l-0.58-1.41h-2.72Z"/><polyline class="cls-5" points="212.32 317.52 214.88 317.52 214.88 317.88 214.88 318.23 211.52 318.23 211.52 315.37 211.52 312.5 212.32 312.5 212.32 315.01 212.32 317.52"/><polyline class="cls-5" points="216.46 317.52 219.46 317.52 219.46 317.88 219.46 318.23 215.66 318.23 215.66 315.37 215.66 312.5 219.34 312.5 219.34 312.85 219.34 313.2 216.46 313.2 216.46 314.06 216.46 314.92 219.17 314.92 219.17 315.26 219.17 315.61 216.46 315.61 216.46 316.56 216.46 317.52"/><path class="cls-5" d="M223.6,314.09c0-1-1.21-.91-2.27-0.91V315c1.06,0,2.27.11,2.27-.92m0.81,0A1.53,1.53,0,0,1,223,315.6l1.6,2.63h-1l-1.46-2.55h-0.86v2.55h-0.8V312.5C222.35,312.49,224.41,312.25,224.41,314.09Z"/><path class="cls-5" d="M225.31,314c0-1.43,1.6-1.93,2.91-1.46a1.65,1.65,0,0,1,.7.48l-0.57.55a1.38,1.38,0,0,0-1.12-.53,1,1,0,0,0-1,1.32c0.45,0.66,1.61.61,2.21,1.12a1.44,1.44,0,0,1,.55,1.17c0,1.54-1.67,2.07-3,1.53a2,2,0,0,1-.83-0.62l0.62-.53a1.6,1.6,0,0,0,1.28.67,1,1,0,0,0,1-1.42c-0.4-.71-1.68-0.61-2.27-1.17a1.44,1.44,0,0,1-.47-1.12"/></svg>